<?xml version="1.0" encoding="UTF-8" standalone="no"?>
<!-- Generator: Adobe Illustrator 16.0.0, SVG Export Plug-In . SVG Version: 6.00 Build 0)  -->

<svg
   xmlns:dc="http://purl.org/dc/elements/1.1/"
   xmlns:cc="http://creativecommons.org/ns#"
   xmlns:rdf="http://www.w3.org/1999/02/22-rdf-syntax-ns#"
   xmlns:svg="http://www.w3.org/2000/svg"
   xmlns="http://www.w3.org/2000/svg"
   xmlns:sodipodi="http://sodipodi.sourceforge.net/DTD/sodipodi-0.dtd"
   xmlns:inkscape="http://www.inkscape.org/namespaces/inkscape"
   version="1.1"
   id="Capa_1"
   x="0px"
   y="0px"
   width="533.333px"
   height="533.333px"
   viewBox="0 0 533.333 533.333"
   style="enable-background:new 0 0 533.333 533.333;"
   xml:space="preserve"
   inkscape:version="0.91 r13725"
   sodipodi:docname="pinterest-white.svg"><metadata
     id="metadata41"><rdf:RDF><cc:Work
         rdf:about=""><dc:format>image/svg+xml</dc:format><dc:type
           rdf:resource="http://purl.org/dc/dcmitype/StillImage" /></cc:Work></rdf:RDF></metadata><defs
     id="defs39" /><sodipodi:namedview
     pagecolor="#ffffff"
     bordercolor="#666666"
     borderopacity="1"
     objecttolerance="10"
     gridtolerance="10"
     guidetolerance="10"
     inkscape:pageopacity="0"
     inkscape:pageshadow="2"
     inkscape:window-width="828"
     inkscape:window-height="480"
     id="namedview37"
     showgrid="false"
     inkscape:zoom="0.44250027"
     inkscape:cx="-23.728799"
     inkscape:cy="266.6665"
     inkscape:window-x="0"
     inkscape:window-y="27"
     inkscape:window-maximized="0"
     inkscape:current-layer="Capa_1" /><g
     id="g3"
     style="fill:#ffffff"><path
       d="M266.667,0C119.391,0,0,119.391,0,266.667c0,147.275,119.388,266.666,266.667,266.666   c147.275,0,266.667-119.391,266.667-266.666C533.333,119.391,413.942,0,266.667,0z M292.523,356.311   c-24.229-1.882-34.397-13.883-53.388-25.421c-10.448,54.781-23.21,107.302-61.01,134.734   c-11.669-82.795,17.132-144.981,30.505-210.997c-22.804-38.389,2.744-115.643,50.844-96.601   c59.18,23.41-51.25,142.712,22.881,157.613c77.406,15.556,109.004-134.302,61.011-183.035   c-69.354-70.367-201.874-1.604-185.578,99.144c3.966,24.631,29.412,32.103,10.168,66.095c-44.385-9.839-57.63-44.845-55.925-91.517   c2.744-76.393,68.638-129.877,134.733-137.274c83.584-9.356,162.035,30.681,172.867,109.311   C431.826,267.107,381.899,363.223,292.523,356.311z"
       id="path5"
       style="fill:#ffffff" /></g><g
     id="g7" /><g
     id="g9" /><g
     id="g11" /><g
     id="g13" /><g
     id="g15" /><g
     id="g17" /><g
     id="g19" /><g
     id="g21" /><g
     id="g23" /><g
     id="g25" /><g
     id="g27" /><g
     id="g29" /><g
     id="g31" /><g
     id="g33" /><g
     id="g35" /></svg>