<?xml version="1.0" encoding="UTF-8" standalone="no"?>
<svg
   xmlns:dc="http://purl.org/dc/elements/1.1/"
   xmlns:cc="http://creativecommons.org/ns#"
   xmlns:rdf="http://www.w3.org/1999/02/22-rdf-syntax-ns#"
   xmlns:svg="http://www.w3.org/2000/svg"
   xmlns="http://www.w3.org/2000/svg"
   viewBox="0 0 1506.25 1151.25"
   height="1151.25"
   width="1506.25"
   xml:space="preserve"
   version="1.1"
   id="svg2"><metadata
     id="metadata8"><rdf:RDF><cc:Work
         rdf:about=""><dc:format>image/svg+xml</dc:format><dc:type
           rdf:resource="http://purl.org/dc/dcmitype/StillImage" /><dc:title></dc:title></cc:Work></rdf:RDF></metadata><defs
     id="defs6"><clipPath
       id="clipPath30"
       clipPathUnits="userSpaceOnUse"><path
         id="path32"
         d="m 876.378,857.185 57.503,0 0,50.348 -57.503,0 0,-50.348 z" /></clipPath><clipPath
       id="clipPath42"
       clipPathUnits="userSpaceOnUse"><path
         id="path44"
         d="M 0,921 1205,921 1205,0 0,0 0,921 Z" /></clipPath><clipPath
       id="clipPath180"
       clipPathUnits="userSpaceOnUse"><path
         id="path182"
         d="m 31.681,742.801 449.064,0 0,-573.065 -449.064,0 0,573.065 z" /></clipPath><clipPath
       id="clipPath194"
       clipPathUnits="userSpaceOnUse"><path
         id="path196"
         d="m 32.8559,741.703 447.0251,0 0,-36.062 -447.0251,0 0,36.062 z" /></clipPath><linearGradient
       id="linearGradient202"
       spreadMethod="pad"
       gradientTransform="matrix(0,-64.033142,-64.033142,0,256.3685,749.46246)"
       gradientUnits="userSpaceOnUse"
       y2="0"
       x2="1"
       y1="0"
       x1="0"><stop
         id="stop204"
         offset="0"
         style="stop-opacity:1;stop-color:#108fb5" /><stop
         id="stop206"
         offset="0.23091"
         style="stop-opacity:1;stop-color:#108fb5" /><stop
         id="stop208"
         offset="0.946113"
         style="stop-opacity:1;stop-color:#0e4859" /><stop
         id="stop210"
         offset="1"
         style="stop-opacity:1;stop-color:#0e4859" /></linearGradient><clipPath
       id="clipPath234"
       clipPathUnits="userSpaceOnUse"><path
         id="path236"
         d="M 0,921 1205,921 1205,0 0,0 0,921 Z" /></clipPath><clipPath
       id="clipPath310"
       clipPathUnits="userSpaceOnUse"><path
         id="path312"
         d="M 0,921 1205,921 1205,0 0,0 0,921 Z" /></clipPath><clipPath
       id="clipPath318"
       clipPathUnits="userSpaceOnUse"><path
         id="path320"
         d="m 41.4139,686.715 56.0249,0 0,-37.025 -56.0249,0 0,37.025 z" /></clipPath><clipPath
       id="clipPath332"
       clipPathUnits="userSpaceOnUse"><path
         id="path334"
         d="m 44.2692,586.704 424.3368,0 0,-37.024 -424.3368,0 0,37.024 z" /></clipPath><clipPath
       id="clipPath364"
       clipPathUnits="userSpaceOnUse"><path
         id="path366"
         d="M 0,921 1205,921 1205,0 0,0 0,921 Z" /></clipPath><clipPath
       id="clipPath372"
       clipPathUnits="userSpaceOnUse"><path
         id="path374"
         d="m 103.414,686.715 56.025,0 0,-37.025 -56.025,0 0,37.025 z" /></clipPath><clipPath
       id="clipPath390"
       clipPathUnits="userSpaceOnUse"><path
         id="path392"
         d="M 0,921 1205,921 1205,0 0,0 0,921 Z" /></clipPath><clipPath
       id="clipPath398"
       clipPathUnits="userSpaceOnUse"><path
         id="path400"
         d="m 164.604,686.715 56.025,0 0,-37.025 -56.025,0 0,37.025 z" /></clipPath><clipPath
       id="clipPath418"
       clipPathUnits="userSpaceOnUse"><path
         id="path420"
         d="M 0,921 1205,921 1205,0 0,0 0,921 Z" /></clipPath><linearGradient
       id="linearGradient448"
       spreadMethod="pad"
       gradientTransform="matrix(0,-115.83999,-115.83999,0,1104.1414,376.59744)"
       gradientUnits="userSpaceOnUse"
       y2="0"
       x2="1"
       y1="0"
       x1="0"><stop
         id="stop450"
         offset="0"
         style="stop-opacity:1;stop-color:#108fb5" /><stop
         id="stop452"
         offset="0.111301"
         style="stop-opacity:1;stop-color:#108fb5" /><stop
         id="stop454"
         offset="0.946113"
         style="stop-opacity:1;stop-color:#0e4859" /><stop
         id="stop456"
         offset="1"
         style="stop-opacity:1;stop-color:#0e4859" /></linearGradient><clipPath
       id="clipPath464"
       clipPathUnits="userSpaceOnUse"><path
         id="path466"
         d="M 0,921 1205,921 1205,0 0,0 0,921 Z" /></clipPath><linearGradient
       id="linearGradient500"
       spreadMethod="pad"
       gradientTransform="matrix(0,-115.83999,-115.83999,0,928.32495,376.59744)"
       gradientUnits="userSpaceOnUse"
       y2="0"
       x2="1"
       y1="0"
       x1="0"><stop
         id="stop502"
         offset="0"
         style="stop-opacity:1;stop-color:#108fb5" /><stop
         id="stop504"
         offset="0.111301"
         style="stop-opacity:1;stop-color:#108fb5" /><stop
         id="stop506"
         offset="0.946113"
         style="stop-opacity:1;stop-color:#0e4859" /><stop
         id="stop508"
         offset="1"
         style="stop-opacity:1;stop-color:#0e4859" /></linearGradient><clipPath
       id="clipPath516"
       clipPathUnits="userSpaceOnUse"><path
         id="path518"
         d="M 0,921 1205,921 1205,0 0,0 0,921 Z" /></clipPath><linearGradient
       id="linearGradient552"
       spreadMethod="pad"
       gradientTransform="matrix(0,-115.83999,-115.83999,0,752.50848,376.59744)"
       gradientUnits="userSpaceOnUse"
       y2="0"
       x2="1"
       y1="0"
       x1="0"><stop
         id="stop554"
         offset="0"
         style="stop-opacity:1;stop-color:#108fb5" /><stop
         id="stop556"
         offset="0.111301"
         style="stop-opacity:1;stop-color:#108fb5" /><stop
         id="stop558"
         offset="0.946113"
         style="stop-opacity:1;stop-color:#0e4859" /><stop
         id="stop560"
         offset="1"
         style="stop-opacity:1;stop-color:#0e4859" /></linearGradient><clipPath
       id="clipPath568"
       clipPathUnits="userSpaceOnUse"><path
         id="path570"
         d="M 0,921 1205,921 1205,0 0,0 0,921 Z" /></clipPath><linearGradient
       id="linearGradient604"
       spreadMethod="pad"
       gradientTransform="matrix(0,-115.83999,-115.83999,0,576.69202,376.59744)"
       gradientUnits="userSpaceOnUse"
       y2="0"
       x2="1"
       y1="0"
       x1="0"><stop
         id="stop606"
         offset="0"
         style="stop-opacity:1;stop-color:#108fb5" /><stop
         id="stop608"
         offset="0.111301"
         style="stop-opacity:1;stop-color:#108fb5" /><stop
         id="stop610"
         offset="0.946113"
         style="stop-opacity:1;stop-color:#0e4859" /><stop
         id="stop612"
         offset="1"
         style="stop-opacity:1;stop-color:#0e4859" /></linearGradient><clipPath
       id="clipPath620"
       clipPathUnits="userSpaceOnUse"><path
         id="path622"
         d="M 0,921 1205,921 1205,0 0,0 0,921 Z" /></clipPath><linearGradient
       id="linearGradient656"
       spreadMethod="pad"
       gradientTransform="matrix(0,-115.83999,-115.83999,0,1104.676,629.82074)"
       gradientUnits="userSpaceOnUse"
       y2="0"
       x2="1"
       y1="0"
       x1="0"><stop
         id="stop658"
         offset="0"
         style="stop-opacity:1;stop-color:#108fb5" /><stop
         id="stop660"
         offset="0.111301"
         style="stop-opacity:1;stop-color:#108fb5" /><stop
         id="stop662"
         offset="0.946113"
         style="stop-opacity:1;stop-color:#0e4859" /><stop
         id="stop664"
         offset="1"
         style="stop-opacity:1;stop-color:#0e4859" /></linearGradient><clipPath
       id="clipPath672"
       clipPathUnits="userSpaceOnUse"><path
         id="path674"
         d="M 0,921 1205,921 1205,0 0,0 0,921 Z" /></clipPath><linearGradient
       id="linearGradient708"
       spreadMethod="pad"
       gradientTransform="matrix(0,-115.83999,-115.83999,0,928.32495,630.31952)"
       gradientUnits="userSpaceOnUse"
       y2="0"
       x2="1"
       y1="0"
       x1="0"><stop
         id="stop710"
         offset="0"
         style="stop-opacity:1;stop-color:#108fb5" /><stop
         id="stop712"
         offset="0.111301"
         style="stop-opacity:1;stop-color:#108fb5" /><stop
         id="stop714"
         offset="0.946113"
         style="stop-opacity:1;stop-color:#0e4859" /><stop
         id="stop716"
         offset="1"
         style="stop-opacity:1;stop-color:#0e4859" /></linearGradient><clipPath
       id="clipPath724"
       clipPathUnits="userSpaceOnUse"><path
         id="path726"
         d="M 0,921 1205,921 1205,0 0,0 0,921 Z" /></clipPath><linearGradient
       id="linearGradient760"
       spreadMethod="pad"
       gradientTransform="matrix(0,-115.83999,-115.83999,0,752.50848,629.39416)"
       gradientUnits="userSpaceOnUse"
       y2="0"
       x2="1"
       y1="0"
       x1="0"><stop
         id="stop762"
         offset="0"
         style="stop-opacity:1;stop-color:#108fb5" /><stop
         id="stop764"
         offset="0.111301"
         style="stop-opacity:1;stop-color:#108fb5" /><stop
         id="stop766"
         offset="0.946113"
         style="stop-opacity:1;stop-color:#0e4859" /><stop
         id="stop768"
         offset="1"
         style="stop-opacity:1;stop-color:#0e4859" /></linearGradient><clipPath
       id="clipPath776"
       clipPathUnits="userSpaceOnUse"><path
         id="path778"
         d="M 0,921 1205,921 1205,0 0,0 0,921 Z" /></clipPath><linearGradient
       id="linearGradient812"
       spreadMethod="pad"
       gradientTransform="matrix(0,-115.83999,-115.83999,0,576.69202,629.39416)"
       gradientUnits="userSpaceOnUse"
       y2="0"
       x2="1"
       y1="0"
       x1="0"><stop
         id="stop814"
         offset="0"
         style="stop-opacity:1;stop-color:#108fb5" /><stop
         id="stop816"
         offset="0.111301"
         style="stop-opacity:1;stop-color:#108fb5" /><stop
         id="stop818"
         offset="0.946113"
         style="stop-opacity:1;stop-color:#0e4859" /><stop
         id="stop820"
         offset="1"
         style="stop-opacity:1;stop-color:#0e4859" /></linearGradient><clipPath
       id="clipPath828"
       clipPathUnits="userSpaceOnUse"><path
         id="path830"
         d="M 0,921 1205,921 1205,0 0,0 0,921 Z" /></clipPath><clipPath
       id="clipPath906"
       clipPathUnits="userSpaceOnUse"><path
         id="path908"
         d="M 0,921 1205,921 1205,0 0,0 0,921 Z" /></clipPath><clipPath
       id="clipPath914"
       clipPathUnits="userSpaceOnUse"><path
         id="path916"
         d="m 27.757,131.226 448.423,0 0,-120.488 -448.423,0 0,120.488 z" /></clipPath></defs><g
     transform="matrix(1.25,0,0,-1.25,0,1151.25)"
     id="g10"><g
       transform="matrix(29.415727,0,0,25.753501,-18064.047,-14717.653)"
       id="g824"><g
         clip-path="url(#clipPath828)"
         id="g826"><g
           transform="translate(630.0417,600.6429)"
           id="g832"><path
             id="path834"
             style="fill:#ffffff;fill-opacity:1;fill-rule:nonzero;stroke:none"
             d="m 0,0 c -1.745,0 -3.165,-1.42 -3.165,-3.166 0,-1.745 1.42,-3.165 3.165,-3.165 1.745,0 3.165,1.42 3.165,3.165 C 3.165,-1.42 1.745,0 0,0 m 0,-1.809 c 0.749,0 1.356,-0.607 1.356,-1.357 0,-0.749 -0.607,-1.357 -1.356,-1.357 -0.749,0 -1.357,0.608 -1.357,1.357 0,0.75 0.608,1.357 1.357,1.357" /></g><g
           transform="translate(641.4816,602.3718)"
           id="g836"><path
             id="path838"
             style="fill:#ffffff;fill-opacity:1;fill-rule:nonzero;stroke:none"
             d="m 0,0 c -2.338,0 -5.807,-0.72 -9.062,-4.152 l -0.496,-0.523 0,-0.124 c -0.62,-0.851 -1.286,-1.887 -1.835,-3.025 -0.548,1.879 -2.224,3.525 -5.2,3.525 -0.312,0 -0.642,-0.018 -0.978,-0.053 -1.644,-0.189 -4.748,-1.797 -4.877,-6.544 -0.014,-0.605 0.073,-1.23 0.271,-1.811 -1.167,-0.337 -2.252,-0.967 -2.687,-2.148 -0.465,-1.131 -0.489,-2.304 -0.068,-3.314 0.303,-0.725 0.993,-1.722 2.562,-2.353 l 0.082,-0.033 0.085,-0.025 c 0.123,-0.036 0.78,-0.216 1.621,-0.216 0.182,0 0.36,0.009 0.534,0.026 -0.078,-1.379 0.27,-2.956 1.655,-4.04 0.293,-0.238 1.406,-1.036 3.107,-1.036 1.142,0 2.273,0.36 3.362,1.071 0.148,-0.135 0.304,-0.264 0.47,-0.388 l 0.007,0.01 c 1.185,-0.955 3.39,-1.054 3.42,-1.054 1.033,0 2.437,0.278 3.755,1.452 0.633,-0.561 1.391,-0.955 2.232,-1.138 0.34,-0.073 0.686,-0.111 1.032,-0.111 2.641,0 5.024,2.147 5.667,5.105 0.44,2.024 -0.023,4.009 -1.095,5.418 1.331,0.908 2.648,2.143 3.598,3.805 0.203,0.37 1.799,3.444 0.706,6.642 C 7.196,-3.07 5.7,-1.569 3.422,-0.573 L 3.419,-0.58 C 3.045,-0.405 2.648,-0.317 2.35,-0.251 1.61,-0.087 0.798,0 0,0 m -0.977,-21.636 c 0.426,0 0.919,0.736 1.132,1.716 0.225,1.04 0.051,1.96 -0.39,2.056 -0.025,0.005 -0.05,0.008 -0.076,0.008 -0.425,0 -0.918,-0.737 -1.131,-1.717 -0.226,-1.039 -0.052,-1.959 0.389,-2.055 0.025,-0.005 0.05,-0.008 0.076,-0.008 m -6.269,6.831 c -0.003,0 -0.005,0 -0.006,10e-4 -0.437,-0.388 -0.914,-0.516 -1.349,-0.516 -0.781,0 -1.427,0.413 -1.456,0.471 -0.084,0.124 -0.159,0.25 -0.227,0.378 -0.335,-0.164 -0.594,-0.245 -0.64,-0.245 -0.005,0 -0.008,10e-4 -0.008,0.002 -0.633,-0.301 -3.406,-0.723 -3.406,-0.723 l -0.784,-3.045 c 0.096,-0.237 0.185,-0.321 0.262,-0.321 0.189,0 0.31,0.501 0.31,0.501 0.091,1.538 1.237,2.383 1.237,2.383 0.471,0.213 0.873,0.3 1.216,0.3 1.006,0 1.505,-0.75 1.738,-1.268 0.75,0.757 1.445,0.925 1.921,0.925 0.382,0 0.624,-0.108 0.642,-0.108 1.827,-1.248 0.494,-2.714 0.41,-2.714 -10e-4,0 -0.002,0 -0.003,10e-4 -1.266,-1.538 -0.858,-2.172 -0.904,-2.172 0.11,-0.25 0.236,-0.347 0.364,-0.347 0.454,0 0.947,1.207 0.947,1.207 0.408,0.724 2.036,7.689 2.036,7.689 0.135,1.04 1.176,1.13 1.176,1.13 1.899,-0.09 1.673,-1.447 1.673,-1.447 0,0 -0.302,-2.021 -0.358,-2.08 -10e-4,-10e-4 -0.002,-10e-4 -0.004,-10e-4 10e-4,0 10e-4,-10e-4 0.002,-10e-4 10e-4,0 10e-4,10e-4 0.002,0.002 1.354,0.228 1.715,1.673 1.715,1.718 0.633,1.99 -1.267,2.759 -1.267,2.804 -0.39,0.205 -0.755,0.293 -1.092,0.293 -2.047,0 -3.113,-3.233 -3.113,-3.233 -0.089,-0.487 -0.917,-1.584 -1.034,-1.584 M 0,-1.809 c 1.642,0 2.717,-0.421 2.697,-0.421 6.106,-2.669 2.895,-8.549 2.895,-8.549 -1.357,-2.374 -3.661,-3.761 -5.515,-4.531 0.059,-0.009 0.118,-0.02 0.177,-0.032 1.984,-0.432 3.165,-2.747 2.638,-5.173 -0.47,-2.161 -2.138,-3.68 -3.9,-3.68 -0.215,0 -0.431,0.023 -0.647,0.07 -1.269,0.276 -2.209,1.324 -2.585,2.677 -0.292,-0.756 -0.507,-1.18 -0.526,-1.18 -1.043,-1.378 -2.241,-1.771 -3.261,-1.771 -1.322,0 -2.346,0.66 -2.346,0.686 -0.643,0.479 -1.033,1.039 -1.25,1.622 -0.643,-0.789 -1.259,-1.156 -1.268,-1.156 0,0 0,0 0,0.001 -0.909,-0.599 -1.723,-0.792 -2.395,-0.792 -1.224,0 -1.978,0.641 -1.978,0.641 -1.718,1.326 -0.662,4.01 -0.662,4.01 l 1.025,3.889 c 0,0 -2.171,-0.06 -2.141,-0.09 -1.116,-0.09 0,-0.784 0.03,-0.814 1.056,-0.543 0.754,-1.327 0.724,-1.357 -0.519,-1.005 -1.513,-1.228 -2.294,-1.228 -0.625,0 -1.113,0.143 -1.113,0.143 -2.623,1.055 -1.478,3.317 -1.478,3.346 0.398,1.14 2.695,1.368 4.469,1.368 1.183,0 2.134,-0.101 2.134,-0.101 0,0 0.784,2.804 0.754,2.804 0.241,0.573 0.09,0.965 0.09,0.965 -0.234,0.419 -0.43,0.561 -0.588,0.561 -0.331,0 -0.497,-0.621 -0.497,-0.621 -0.03,-0.181 -0.06,-1.75 -0.06,-1.75 -0.414,-0.981 -1.318,-1.158 -1.798,-1.158 -0.183,0 -0.304,0.026 -0.313,0.043 -1.748,0.121 -1.658,2.412 -1.658,2.442 0.12,4.433 3.256,4.794 3.256,4.794 0.281,0.029 0.545,0.043 0.791,0.043 3.824,0 3.61,-3.299 3.582,-3.299 0.059,-1.469 -0.805,-4.131 -0.785,-4.131 0,0 0,0 0,0 0.017,-0.002 0.035,-0.003 0.054,-0.003 0.626,0 1.906,0.968 1.906,0.968 0.395,0.327 0.794,0.727 1.13,1.068 0.443,3.055 2.956,6.075 2.956,6.108 2.784,2.935 5.706,3.588 7.75,3.588" /></g><g
           transform="translate(639.5388,599.7471)"
           id="g840"><path
             id="path842"
             style="fill:#e1dfe1;fill-opacity:1;fill-rule:nonzero;stroke:none"
             d="M 0,0 C 0,0 7.426,2.092 7.792,-5.647 7.792,-5.543 7.008,0.471 0,0" /></g><g
           transform="translate(653.5424,598.7644)"
           id="g844"><path
             id="path846"
             style="fill:none;stroke:#ffffff;stroke-width:0.31;stroke-linecap:butt;stroke-linejoin:miter;stroke-miterlimit:10;stroke-dasharray:none;stroke-opacity:1"
             d="m 0,0 c 0,-0.685 -0.555,-1.241 -1.24,-1.241 -0.685,0 -1.241,0.556 -1.241,1.241 0,0.685 0.556,1.241 1.241,1.241 C -0.555,1.241 0,0.685 0,0 Z" /></g></g></g><text
       y="-703.50732"
       x="1069.6479"
       id="text848"
       style="font-variant:normal;font-weight:bold;font-stretch:normal;font-size:66.3060379px;font-family:'Myriad Pro';-inkscape-font-specification:HelveticaLTStd-Bold;writing-mode:lr-tb;fill:#ffffff;fill-opacity:1;fill-rule:nonzero;stroke:none"
       transform="scale(1.0328727,-0.96817353)"><tspan
         id="tspan850"
         y="-703.50732"
         x="1069.6479">R</tspan></text>
</g></svg>