<?xml version="1.0" encoding="utf-8"?>
<!-- Generator: Adobe Illustrator 18.1.1, SVG Export Plug-In . SVG Version: 6.00 Build 0)  -->
<svg version="1.1" id="Objects" xmlns="http://www.w3.org/2000/svg" xmlns:xlink="http://www.w3.org/1999/xlink" x="0px" y="0px"
	 viewBox="0 0 325.8 265" enable-background="new 0 0 325.8 265" xml:space="preserve">
<g>
	<path fill="#FFFFFF" d="M141.8,85.6c-10.4,0-18.8-8.4-18.8-18.8c0-10.4,8.4-18.8,18.8-18.8c10.4,0,18.8,8.4,18.8,18.8
		C160.6,77.2,152.2,85.6,141.8,85.6z"/>
	<g>
		<path fill="#050303" d="M141.8,55c6.5,0,11.8,5.3,11.8,11.8c0,6.5-5.3,11.8-11.8,11.8c-6.5,0-11.8-5.3-11.8-11.8
			C130,60.3,135.3,55,141.8,55 M141.8,40.9c-14.3,0-25.9,11.6-25.9,25.9c0,14.3,11.6,25.9,25.9,25.9c14.3,0,25.9-11.6,25.9-25.9
			C167.7,52.5,156.1,40.9,141.8,40.9L141.8,40.9z"/>
	</g>
</g>
<g>
	<path fill="#FFFFFF" d="M171.4,243.1c-7.1,0-13.2-1.8-17.1-3.4c-3.7-1.5-6.2-2.8-7.8-4.2c-3-2.3-5.7-4.9-7.8-7.8
		c-0.6,0.5-1.1,1-1.6,1.4c-1.9,1.5-3.3,2.5-4.3,3.1c-8,5.2-16.1,7.8-24.3,7.8c-12.3,0-20.1-5.9-21.6-7.1
		c-15.7-12.2-11-33.2-8.8-40.4c-4.3,2.3-9.5,3.6-15.4,3.6c-4.7,0-8.7-0.8-10.4-1.1c-0.1,0-0.1,0-0.2,0c-0.7-0.1-1.3-0.2-2-0.5
		c-8.7-3.5-14.6-8.8-17.5-15.7c-2.8-6.7-2.6-14.6,0.7-22.3c3-8.5,12.4-13.6,28.5-15.6c-4.9-5.5-7.1-13.7-6.9-21.6c0,0,0,0,0-0.1
		c0.6-22.6,9.7-34.5,17.2-40.5c8.3-6.7,16.5-7.8,17.4-7.9c2.7-0.3,5.3-0.4,7.7-0.4c18.3,0,27.5,7.8,32.1,14.4
		c5.5,7.9,6.1,16.5,6.1,19.8c0,0.6,0,1.1-0.1,1.6c0.2,6.7-1.3,15.2-3.2,23.2c0.5-0.4,1-0.7,1.5-1.1c2.7-3.2,5.7-5.9,8.2-8
		c3-15.9,12.1-34.4,25.9-52.5c0.2-0.2,0.3-0.4,0.4-0.5c0.2-0.4,0.5-0.7,0.8-1c26.1-27.6,53.8-33.3,72.4-33.3c8,0,14.5,1.1,18.5,2
		c2.8,0.6,5.6,1.2,7.7,2.3l0,0c17.5,7.6,28.9,18.9,33.9,33.6c8.4,24.7-4.8,49.4-5.4,50.4c0,0,0,0.1-0.1,0.1
		c-9.6,16.7-24,28.1-37.3,35.6c4.4,3.4,8,7.9,10.8,13.3c5.1,9.9,6.4,21.9,3.9,33.6c-4.7,21.7-21.8,37.5-40.7,37.5c0,0,0,0,0,0
		c-2.4,0-4.8-0.3-7.1-0.8c-8.5-1.9-15.8-6.9-21.1-14.1C193.1,240.2,180.3,243.1,171.4,243.1z M235.8,194.2c-0.1,0.5-0.2,1-0.4,1.5
		s-0.2,1-0.3,1.5c0.1-0.5,0.2-1,0.4-1.5C235.7,195.2,235.8,194.7,235.8,194.2z M180.2,160.1c1,0.9,2.1,1.9,3.1,3.1
		c0.6-2.3,1.2-4.7,1.8-7.1c-1.2,1.3-2.2,2.2-3.3,2.8C181.3,159.3,180.8,159.7,180.2,160.1z"/>
	<path fill="#050303" d="M241.1,40c14.3,0,23.6,3.7,23.4,3.7c53,23.2,25.1,74.2,25.1,74.2c-11.8,20.6-31.8,32.7-47.9,39.3
		c0.5,0.1,1,0.2,1.5,0.3c17.2,3.7,27.5,23.8,22.9,44.9c-4.1,18.8-18.6,31.9-33.8,31.9c-1.9,0-3.7-0.2-5.6-0.6
		c-11-2.4-19.2-11.5-22.4-23.2c-2.5,6.6-4.4,10.2-4.6,10.2c-9.1,12-19.5,15.4-28.3,15.4c-11.5,0-20.4-5.7-20.4-5.9
		c-5.6-4.2-9-9-10.8-14.1c-5.6,6.9-10.9,10-11,10c0,0,0,0,0,0c-7.9,5.2-14.9,6.9-20.8,6.9c-10.6,0-17.2-5.6-17.2-5.6
		c-14.9-11.5-5.8-34.8-5.8-34.8l8.9-33.8c0,0-18.8,0.5-18.6,0.8c-9.7,0.8,0,6.8,0.3,7.1c9.2,4.7,6.5,11.5,6.3,11.8
		c-4.5,8.7-12.9,10.6-19.7,10.6c-5.2,0-9.4-1.1-9.9-1.1c0,0,0,0,0,0C30,178.7,40,159.1,40,158.8c3.5-9.9,23.4-11.9,38.8-11.9
		c10.3,0,18.5,0.9,18.5,0.9s6.8-24.3,6.5-24.3c2.1-5,0.8-8.4,0.8-8.4c-2-3.6-3.7-4.9-5.1-4.9c-2.9,0-4.3,5.4-4.3,5.4
		c-0.3,1.6-0.5,15.2-0.5,15.2c-3.6,8.5-11.4,10.1-15.6,10.1c-1.6,0-2.7-0.2-2.7-0.4c-15.2-1-14.4-20.9-14.4-21.2
		c1-38.5,28.3-41.6,28.3-41.6c2.4-0.3,4.7-0.4,6.9-0.4c33.2,0,31.3,28.6,31.1,28.6c0.5,12.8-7,35.9-6.8,35.9c0,0,0,0,0,0
		c0.1,0,0.3,0,0.5,0c5.4,0,16.5-8.4,16.5-8.4c3.1-3.8,6.9-7,9.8-9.3c3.8-26.5,25.7-52.7,25.7-53C198,45.7,223.4,40,241.1,40
		 M178.2,152.8C178.2,152.8,178.2,152.8,178.2,152.8c-3.8,3.4-8,4.5-11.8,4.5c-6.8,0-12.4-3.6-12.6-4.1c-0.7-1.1-1.4-2.2-2-3.3
		c-2.9,1.4-5.2,2.1-5.6,2.1c0,0-0.1,0-0.1,0c-5.5,2.6-29.6,6.3-29.6,6.3l-6.8,26.4c0.8,2.1,1.6,2.8,2.3,2.8c1.6,0,2.7-4.3,2.7-4.3
		c0.8-13.4,10.7-20.7,10.7-20.7c4.1-1.9,7.6-2.6,10.6-2.6c8.7,0,13.1,6.5,15.1,11c6.5-6.6,12.6-8,16.7-8c3.3,0,5.4,0.9,5.6,0.9
		c15.8,10.8,4.3,23.6,3.6,23.6c0,0,0,0,0,0c-11,13.3-7.5,18.8-7.9,18.8c1,2.2,2,3,3.2,3c3.9,0,8.2-10.5,8.2-10.5
		c3.5-6.3,17.7-66.7,17.7-66.7c1.2-9,10.2-9.8,10.2-9.8c16.5,0.8,14.5,12.6,14.5,12.6s-2.6,17.5-3.1,18c0,0,0,0,0,0c0,0,0,0,0,0
		c0,0,0,0,0,0c11.7-2,14.9-14.5,14.9-14.9c5.5-17.3-11-23.9-11-24.3c-3.4-1.8-6.6-2.5-9.5-2.5c-17.8,0-27,28.1-27,28.1
		C186.4,143.3,179.2,152.8,178.2,152.8 M232.6,212.1c3.7,0,8-6.4,9.8-14.9c2-9,0.4-17-3.4-17.8c-0.2,0-0.4-0.1-0.7-0.1
		c-3.7,0-8,6.4-9.8,14.9c-2,9-0.5,17,3.4,17.8C232.2,212.1,232.4,212.1,232.6,212.1 M241.1,25.9c-20,0-49.6,6.2-77.5,35.5
		c-0.5,0.5-1,1.1-1.4,1.8c-0.1,0.1-0.1,0.2-0.2,0.3c-9.6,12.6-16,23.9-20.2,33.6c-0.8-4.7-2.7-10.7-6.7-16.5
		c-5.5-8-16.6-17.4-37.9-17.4c-2.7,0-5.5,0.2-8.3,0.4c-0.1,0-0.1,0-0.2,0c-1.8,0.2-11.4,1.6-21,9.4c-8.6,7-19.1,20.6-19.8,45.8
		c0,0,0,0.1,0,0.1c-0.1,2.5,0.1,8.8,2.4,15.5c0.1,0.4,0.3,0.8,0.4,1.2c-12.6,3.2-20.6,9.3-23.9,18.1c-3.9,9.4-4.1,19.2-0.6,27.6
		c2.5,6,8.3,14.3,21.4,19.5c1.1,0.5,2.3,0.8,3.5,0.9c1.9,0.4,6.3,1.2,11.7,1.2c2.1,0,4.2-0.1,6.2-0.4c-0.1,0.7-0.1,1.4-0.2,2.1
		c-0.8,14.1,4.1,26.1,13.8,33.6c2.2,1.8,11.7,8.6,25.9,8.6c9.5,0,19-3,28.1-8.9c0.4-0.2,0.9-0.5,1.3-0.8c1.5,1.4,3.1,2.8,4.8,4.1
		l0,0c1.2,1,2.4,1.6,3.1,2c1.3,0.7,3.3,1.8,6,2.8c4.5,1.8,11.5,3.9,19.7,3.9c8.9,0,21.2-2.5,32.6-13.2c5.5,5.2,12.2,8.9,19.7,10.5
		c2.8,0.6,5.7,0.9,8.6,0.9c22.2,0,42.2-18.1,47.6-43.1c2.9-13.4,1.3-27-4.5-38.3c-1.6-3.2-3.5-6.1-5.7-8.7
		c11.8-7.8,23.7-18.7,32.1-33.4c0-0.1,0.1-0.2,0.1-0.2c0.6-1.2,15.3-28.5,5.9-56.1c-5.7-16.6-18.4-29.3-37.7-37.8l0,0
		c-0.4-0.2-0.8-0.3-1.2-0.5c-0.6-0.2-1.2-0.4-1.9-0.6c-1.8-0.6-3.8-1.1-5.9-1.6C254.8,26.6,247.9,25.9,241.1,25.9L241.1,25.9z"/>
</g>
<path fill="#E1DFE1" d="M224.2,47.1c0,0,64.4-18.2,67.6,49C291.9,95.2,285.1,43,224.2,47.1z"/>
</svg>
